<!DOCTYPE svg PUBLIC "-//W3C//DTD SVG 1.1//EN" "http://www.w3.org/Graphics/SVG/1.1/DTD/svg11.dtd">

<svg width="800px" height="800px" viewBox="-4.8 -4.8 57.60 57.60" data-name="Layer 1" id="Layer_1"
     xmlns="http://www.w3.org/2000/svg" fill="#000000">

    <g id="SVGRepo_bgCarrier" stroke-width="0">

        <path transform="translate(-4.8, -4.8), scale(3.5999999999999996)" fill="#7ed0ec"
              d="M9.166.33a2.25 2.25 0 00-2.332 0l-5.25 3.182A2.25 2.25 0 00.5 5.436v5.128a2.25 2.25 0 001.084 1.924l5.25 3.182a2.25 2.25 0 002.332 0l5.25-3.182a2.25 2.25 0 001.084-1.924V5.436a2.25 2.25 0 00-1.084-1.924L9.166.33z"
              strokewidth="0"/>

    </g>

    <g id="SVGRepo_tracerCarrier" stroke-linecap="round" stroke-linejoin="round"/>

    <g id="SVGRepo_iconCarrier">

        <defs>

            <style>
                .cls-1,.cls-2{fill:none;stroke:#1d1d1b;stroke-linecap:round;stroke-linejoin:round;stroke-width:2px;}.cls-1{fill-rule:evenodd;}
            </style>

        </defs>

        <title/>

        <polyline class="cls-1" points="1 1 1 47 47 47"/>

        <rect class="cls-2" height="22" width="7" x="5" y="21"/>

        <rect class="cls-2" height="16" width="7" x="16" y="27"/>

        <rect class="cls-2" height="28" width="7" x="27" y="15"/>

        <rect class="cls-2" height="21" width="7" x="38" y="22"/>

    </g>

</svg>